<?xml version="1.0" standalone="no"?>
<!DOCTYPE svg PUBLIC "-//W3C//DTD SVG 20010904//EN"
 "http://www.w3.org/TR/2001/REC-SVG-20010904/DTD/svg10.dtd">
<svg version="1.0" xmlns="http://www.w3.org/2000/svg"
 width="640.000000pt" height="640.000000pt" viewBox="0 0 640.000000 640.000000"
 preserveAspectRatio="xMidYMid meet">

<g transform="translate(0.000000,640.000000) scale(0.100000,-0.100000)"
fill="#000000" stroke="none">
<path d="M3905 5656 c-241 -54 -435 -149 -620 -307 -154 -130 -640 -637 -1009
-1049 -22 -25 -67 -74 -100 -110 -34 -36 -99 -108 -146 -160 -47 -52 -115
-126 -151 -165 -719 -772 -742 -798 -832 -980 -110 -220 -156 -403 -164 -655
-4 -141 -2 -183 16 -285 113 -625 580 -1110 1166 -1211 148 -26 408 -24 540 4
199 42 369 112 503 205 79 55 244 201 317 280 32 34 122 129 199 211 248 264
448 480 607 656 187 208 509 561 750 820 130 140 266 289 303 330 166 188 268
389 322 640 16 70 19 129 19 335 0 269 -5 306 -62 480 -123 375 -390 681 -750
859 -202 100 -331 126 -607 125 -167 -1 -218 -5 -301 -23z m530 -211 c469
-100 819 -444 936 -920 40 -161 36 -475 -7 -650 -52 -211 -137 -356 -318 -544
-140 -145 -295 -308 -311 -326 -5 -7 -55 -61 -111 -121 -55 -60 -167 -181
-249 -269 -81 -88 -152 -162 -157 -164 -6 -2 -49 35 -97 81 -47 46 -108 104
-136 127 -27 24 -131 123 -230 220 -99 97 -239 232 -310 300 -72 69 -193 186
-270 260 -77 75 -180 174 -230 220 -109 102 -495 483 -495 489 0 6 164 186
284 312 50 52 118 124 150 160 33 36 96 103 141 150 44 47 134 143 200 214
193 207 331 313 503 386 86 37 231 76 327 89 90 13 290 5 380 -14z m-2048
-1622 c45 -43 112 -107 150 -142 37 -36 133 -128 213 -205 80 -78 195 -188
255 -245 102 -96 437 -418 683 -656 l104 -100 -30 -37 c-63 -79 -196 -223
-427 -462 -43 -45 -244 -261 -316 -340 -63 -70 -207 -188 -286 -235 -293 -174
-724 -180 -1043 -14 -58 31 -112 61 -121 69 -8 8 -19 14 -22 14 -17 0 -111 75
-171 135 -91 92 -174 206 -207 284 -40 96 -53 197 -46 364 7 195 42 344 115
497 77 159 121 216 376 480 88 91 214 221 281 290 66 69 178 187 249 262 103
111 131 136 145 128 9 -5 53 -44 98 -87z"/>
</g>
</svg>
